<svg xmlns="http://www.w3.org/2000/svg" width="18" height="17" viewBox="0 0 18 17"><g><g opacity=".3"><path d="M17.877 7.386v.764a.374.374 0 0 1-.375.372h-2.714v2.687c0 .205-.168.371-.375.371h-.773a.373.373 0 0 1-.376-.37V8.521H10.55a.374.374 0 0 1-.375-.37v-.766c0-.205.169-.372.375-.372h2.714V4.33c0-.205.168-.371.376-.371h.773c.207 0 .375.166.375.37v2.686h2.714c.207 0 .375.167.375.372zm-7.668 5.356c0 1.591-1.224 2.97-3.116 3.514a7.091 7.091 0 0 1-1.952.262 9.037 9.037 0 0 1-2.191-.26c-1.331-.333-2.316-.962-2.774-1.774a2.245 2.245 0 0 1-.299-1.112c0-.4.097-.804.287-1.204.73-1.538 2.651-2.573 4.78-2.573h.061a1.849 1.849 0 0 1-.257-.94c0-.164.022-.33.065-.5C2.58 8.106.91 6.488.91 4.354.91 2.846 2.127 1.38 3.867.786A4.897 4.897 0 0 1 5.44.517h4.775c.163 0 .306.105.357.258a.367.367 0 0 1-.138.415l-1.068.765a.375.375 0 0 1-.22.07h-.382c.493.586.783 1.42.783 2.358 0 1.035-.53 2.015-1.492 2.76-.744.574-.773.73-.773 1.059.009.18.528.766 1.098 1.167 1.332.932 1.828 1.846 1.828 3.373zm-5.078 2.277c2.057 0 3.1-.701 3.1-2.084 0-.132-.017-.267-.05-.402-.138-.539-.635-.873-1.388-1.381l-.323-.219a3.677 3.677 0 0 0-1.024-.154h-.044c-1.625 0-3.051.975-3.051 2.085 0 1.209 1.221 2.155 2.78 2.155zM3.374 4.296c.185 1.398 1.217 2.606 2.25 2.638h.018c.389 0 .717-.152.972-.44.398-.449.574-1.185.47-1.97-.186-1.4-1.196-2.563-2.251-2.594H4.79c-.373 0-.706.151-.96.438-.393.444-.56 1.147-.456 1.928z"/></g></g></svg>