<svg xmlns="http://www.w3.org/2000/svg" width="13" height="17" viewBox="0 0 13 17"><g><g opacity=".3"><path d="M6.771.517C2.188.517-.123 3.647-.123 6.26c0 1.58.629 2.987 1.975 3.51.221.087.42.004.483-.23.045-.16.15-.567.197-.737.065-.23.04-.31-.139-.512-.388-.437-.636-1.002-.636-1.802 0-2.323 1.824-4.402 4.749-4.402 2.59 0 4.013 1.508 4.013 3.522 0 2.65-1.23 4.887-3.058 4.887-1.009 0-1.764-.795-1.522-1.77.29-1.165.851-2.422.851-3.262 0-.753-.424-1.38-1.3-1.38-1.032 0-1.861 1.017-1.861 2.379 0 .868.308 1.454.308 1.454l-1.241 5.009c-.368 1.486-.055 3.308-.029 3.492.016.109.163.135.23.053.095-.119 1.324-1.564 1.741-3.008.118-.409.678-2.526.678-2.526.336.61 1.315 1.145 2.357 1.145 3.1 0 5.204-2.693 5.204-6.298 0-2.726-2.423-5.266-6.106-5.266z"/></g></g></svg>