<svg xmlns="http://www.w3.org/2000/svg" width="16" height="14" viewBox="0 0 16 14"><g><g opacity=".3"><path d="M15.877 2.057a6.555 6.555 0 0 1-1.886.516A3.29 3.29 0 0 0 15.435.757a6.597 6.597 0 0 1-2.085.797 3.283 3.283 0 0 0-5.594 2.993 9.321 9.321 0 0 1-6.768-3.43A3.28 3.28 0 0 0 2.004 5.5a3.27 3.27 0 0 1-1.487-.41v.042A3.285 3.285 0 0 0 3.15 8.349a3.303 3.303 0 0 1-1.483.056 3.286 3.286 0 0 0 3.067 2.279 6.588 6.588 0 0 1-4.86 1.359 9.293 9.293 0 0 0 5.032 1.475c6.04 0 9.342-5.001 9.342-9.339 0-.142-.003-.284-.01-.424a6.648 6.648 0 0 0 1.639-1.698z"/></g></g></svg>